<?xml version="1.0" encoding="UTF-8" standalone="no"?>
<!-- Created with Inkscape (http://www.inkscape.org/) -->

<svg
   xmlns:dc="http://purl.org/dc/elements/1.1/"
   xmlns:cc="http://creativecommons.org/ns#"
   xmlns:rdf="http://www.w3.org/1999/02/22-rdf-syntax-ns#"
   xmlns:svg="http://www.w3.org/2000/svg"
   xmlns="http://www.w3.org/2000/svg"
   xmlns:xlink="http://www.w3.org/1999/xlink"
   xmlns:sodipodi="http://sodipodi.sourceforge.net/DTD/sodipodi-0.dtd"
   xmlns:inkscape="http://www.inkscape.org/namespaces/inkscape"
   id="svg2"
   sodipodi:docname="balanceScaleWeight.svg"
   viewBox="0 0 333.48 221.39"
   sodipodi:version="0.32"
   version="1.0"
   inkscape:output_extension="org.inkscape.output.svg.inkscape"
   inkscape:version="0.48.2 r9819"
   width="100%"
   height="100%">
  <sodipodi:namedview
     id="base"
     bordercolor="#666666"
     inkscape:pageshadow="2"
     guidetolerance="10"
     pagecolor="#ffffff"
     gridtolerance="10000"
     inkscape:snap-global="false"
     inkscape:zoom="2.4438966"
     objecttolerance="10"
     inkscape:window-height="756"
     showgrid="false"
     borderopacity="1.0"
     inkscape:current-layer="layer1"
     inkscape:cx="166.33273"
     inkscape:cy="110.69683"
     inkscape:window-y="0"
     inkscape:window-x="0"
     inkscape:window-width="1272"
     inkscape:pageopacity="0.0"
     inkscape:document-units="px"
     inkscape:window-maximized="0" />
  <defs
     id="defs4">
    <linearGradient
       id="linearGradient3366">
      <stop
         id="stop3368"
         style="stop-color:#777777"
         offset="0" />
      <stop
         id="stop3370"
         style="stop-color:#282828"
         offset="1" />
    </linearGradient>
    <linearGradient
       id="linearGradient3329">
      <stop
         id="stop3331"
         style="stop-color:#444444"
         offset="0" />
      <stop
         id="stop3333"
         style="stop-color:#000000"
         offset="1" />
    </linearGradient>
    <linearGradient
       id="linearGradient3297">
      <stop
         id="stop3299"
         style="stop-color:#000000;stop-opacity:0"
         offset="0" />
      <stop
         id="stop3301"
         style="stop-color:#000000"
         offset="1" />
    </linearGradient>
    <linearGradient
       id="linearGradient4173"
       y2="493.11"
       xlink:href="#linearGradient3366"
       gradientUnits="userSpaceOnUse"
       x2="399.06"
       y1="463.57"
       x1="391.13"
       inkscape:collect="always" />
    <linearGradient
       id="linearGradient4175"
       y2="631.35"
       xlink:href="#linearGradient3329"
       gradientUnits="userSpaceOnUse"
       x2="353.18"
       y1="493.05"
       x1="368.38"
       inkscape:collect="always" />
    <linearGradient
       id="linearGradient4177"
       y2="610.86"
       xlink:href="#linearGradient3329"
       gradientUnits="userSpaceOnUse"
       x2="516.95"
       y1="466.45"
       x1="436.89"
       inkscape:collect="always" />
    <linearGradient
       id="linearGradient4179"
       y2="512.14"
       xlink:href="#linearGradient3366"
       gradientUnits="userSpaceOnUse"
       x2="446.06"
       y1="492.56"
       x1="431.9"
       inkscape:collect="always" />
    <radialGradient
       id="radialGradient4181"
       gradientUnits="userSpaceOnUse"
       cy="444.92"
       cx="406.46"
       gradientTransform="matrix(1 0 0 .94069 0 26.388)"
       r="9.4844"
       inkscape:collect="always">
      <stop
         id="stop3271"
         style="stop-color:#ffffff"
         offset="0" />
      <stop
         id="stop3273"
         style="stop-color:#5f5f5f;stop-opacity:0"
         offset="1" />
    </radialGradient>
    <radialGradient
       id="radialGradient4183"
       gradientUnits="userSpaceOnUse"
       cy="444.92"
       cx="406.46"
       gradientTransform="matrix(1 0 0 .94069 0 26.388)"
       r="9.4844"
       inkscape:collect="always">
      <stop
         id="stop3289"
         style="stop-color:#000000;stop-opacity:0"
         offset="0" />
      <stop
         id="stop3295"
         style="stop-color:#000000;stop-opacity:.054902"
         offset=".5" />
      <stop
         id="stop3291"
         style="stop-color:#777777;stop-opacity:.60234"
         offset="1" />
    </radialGradient>
    <linearGradient
       id="linearGradient4185"
       y2="447.18"
       xlink:href="#linearGradient3297"
       gradientUnits="userSpaceOnUse"
       x2="412.45"
       gradientTransform="translate(.10219 5.1451)"
       y1="441.12"
       x1="408.5"
       inkscape:collect="always" />
    <radialGradient
       id="radialGradient4187"
       gradientUnits="userSpaceOnUse"
       cy="437.36"
       cx="387.77"
       gradientTransform="matrix(.10937 .12016 -.46182 .42035 560.06 207.9)"
       r="9.4844"
       inkscape:collect="always">
      <stop
         id="stop3313"
         style="stop-color:#ffffff;stop-opacity:.35673"
         offset="0" />
      <stop
         id="stop3315"
         style="stop-color:#ffffff;stop-opacity:0"
         offset="1" />
    </radialGradient>
    <linearGradient
       id="linearGradient4189"
       y2="493.87"
       xlink:href="#linearGradient3297"
       gradientUnits="userSpaceOnUse"
       x2="432.41"
       y1="482.04"
       x1="429.61"
       inkscape:collect="always" />
  </defs>
  <g
     id="layer1"
     inkscape:label="Layer 1"
     inkscape:groupmode="layer"
     transform="translate(-269.23 -430.7)">
    <path
       id="rect2423"
       sodipodi:nodetypes="ccccc"
       style="stroke-linejoin:round;stroke:#000000;stroke-linecap:round;fill:url(#linearGradient4173)"
       d="m346.67 482.01l85.69-12.48 87.86 12.57-92.64 15.49-80.91-15.58z" />
    <path
       id="rect2417"
       sodipodi:nodetypes="ccccc"
       style="stroke-linejoin:round;stroke:#000000;stroke-linecap:round;fill:url(#linearGradient4175)"
       d="m346.61 482.01l80.17 15.12 9.44 154.46-166.49-50.64 76.88-118.94z" />
    <path
       id="rect2419"
       sodipodi:nodetypes="ccccc"
       style="stroke-linejoin:round;stroke:url(#linearGradient4179);stroke-linecap:round;fill:url(#linearGradient4177)"
       d="m426.69 497.6l93.39-15.59 82.14 124.19-165.18 45.39-10.35-153.99z" />
    <g
       id="g3343"
       transform="matrix(3.9894 0 0 3.2405 -1194.9 -982.18)">
      <path
         id="path2446"
         style="fill:#000000"
         d="m406.45 436c-5.24 0-9.47 4.01-9.47 8.94 0 4.92 4.23 8.91 9.47 8.91 5.23 0 9.5-3.99 9.5-8.91 0-4.93-4.27-8.94-9.5-8.94zm0 3.53c3.16 0 5.75 2.43 5.75 5.41s-2.59 5.37-5.75 5.37c-3.17 0-5.72-2.39-5.72-5.37s2.55-5.41 5.72-5.41z" />
      <path
         id="path2497"
         style="fill:url(#radialGradient4181)"
         d="m406.45 436c-5.24 0-9.47 4.01-9.47 8.94 0 4.92 4.23 8.91 9.47 8.91 5.23 0 9.5-3.99 9.5-8.91 0-4.93-4.27-8.94-9.5-8.94zm0 3.53c3.16 0 5.75 2.43 5.75 5.41s-2.59 5.37-5.75 5.37c-3.17 0-5.72-2.39-5.72-5.37s2.55-5.41 5.72-5.41z" />
      <path
         id="path3277"
         style="fill:url(#radialGradient4183)"
         d="m406.45 436c-5.24 0-9.47 4.01-9.47 8.94 0 4.92 4.23 8.91 9.47 8.91 5.23 0 9.5-3.99 9.5-8.91 0-4.93-4.27-8.94-9.5-8.94zm0 3.53c3.16 0 5.75 2.43 5.75 5.41s-2.59 5.37-5.75 5.37c-3.17 0-5.72-2.39-5.72-5.37s2.55-5.41 5.72-5.41z" />
      <path
         id="path2495"
         style="fill:url(#linearGradient4185)"
         d="m406.45 436c-5.24 0-9.47 4.01-9.47 8.94 0 4.92 4.23 8.91 9.47 8.91 5.23 0 9.5-3.99 9.5-8.91 0-4.93-4.27-8.94-9.5-8.94zm0 3.53c3.16 0 5.75 2.43 5.75 5.41s-2.59 5.37-5.75 5.37c-3.17 0-5.72-2.39-5.72-5.37s2.55-5.41 5.72-5.41z" />
      <path
         id="path2493"
         style="fill:url(#radialGradient4187)"
         d="m406.45 436c-5.24 0-9.47 4.01-9.47 8.94 0 4.92 4.23 8.91 9.47 8.91 5.23 0 9.5-3.99 9.5-8.91 0-4.93-4.27-8.94-9.5-8.94zm0 3.53c3.16 0 5.75 2.43 5.75 5.41s-2.59 5.37-5.75 5.37c-3.17 0-5.72-2.39-5.72-5.37s2.55-5.41 5.72-5.41z" />
    </g>
    <path
       id="path3372"
       sodipodi:rx="14.89038"
       sodipodi:ry="5.9153566"
       style="fill:url(#linearGradient4189)"
       sodipodi:type="arc"
       d="m 445.89551,487.9556 c 0,3.26696 -6.66665,5.91535 -14.89038,5.91535 -8.22373,0 -14.89038,-2.64839 -14.89038,-5.91535 0,-3.26696 6.66665,-5.91536 14.89038,-5.91536 8.22373,0 14.89038,2.6484 14.89038,5.91536 z"
       transform="matrix(1.6027 0 0 1 -262.23 -1.6318)"
       sodipodi:cy="487.9556"
       sodipodi:cx="431.00513" />
    <text
       xml:space="preserve"
       style="font-size:72.61961365px;font-style:normal;font-weight:normal;line-height:125%;letter-spacing:0px;word-spacing:0px;fill:#000000;fill-opacity:1;stroke:none;font-family:Sans"
       x="337.94373"
       y="486.84695"
       id="text3020"
       sodipodi:linespacing="125%"
       transform="matrix(0.97821045,0.29906773,0,1.0222749,0,0)"><tspan
         sodipodi:role="line"
         id="tspan3022"
         x="337.94373"
         y="486.84695"
         style="font-size:130.71530151px;fill:#ffffff;font-family:Times New Roman;-inkscape-font-specification:Times New Roman">D</tspan></text>
    <text
       xml:space="preserve"
       style="font-size:130.69999695px;font-style:normal;font-weight:normal;line-height:125%;letter-spacing:0px;word-spacing:0px;fill:#000000;fill-opacity:1;stroke:none;font-family:Sans"
       x="449.6795"
       y="757.69281"
       id="text3070"
       sodipodi:linespacing="125%"
       transform="matrix(1,-0.30572943,0,1,0,0)"><tspan
         sodipodi:role="line"
         id="tspan3072"
         x="449.6795"
         y="757.69281"
         style="font-size:130.69999695px;fill:#ffffff;font-family:Times New Roman;-inkscape-font-specification:Times New Roman">D</tspan></text>
  </g>
  <metadata
     id="metadata43">
    <rdf:RDF>
      <cc:Work>
        <dc:format>image/svg+xml</dc:format>
        <dc:type
           rdf:resource="http://purl.org/dc/dcmitype/StillImage" />
        <cc:license
           rdf:resource="http://creativecommons.org/licenses/publicdomain/" />
        <dc:publisher>
          <cc:Agent
             rdf:about="http://openclipart.org/">
            <dc:title>Openclipart</dc:title>
          </cc:Agent>
        </dc:publisher>
        <dc:title></dc:title>
        <dc:date>2010-02-12T22:02:28</dc:date>
        <dc:description />
        <dc:source>https://openclipart.org/detail/29271/10-kg-weight-by-klaasvangend</dc:source>
        <dc:creator>
          <cc:Agent>
            <dc:title>klaasvangend</dc:title>
          </cc:Agent>
        </dc:creator>
        <dc:subject>
          <rdf:Bag>
            <rdf:li>kilogram</rdf:li>
            <rdf:li>mass</rdf:li>
            <rdf:li>unchecked</rdf:li>
            <rdf:li>weight</rdf:li>
          </rdf:Bag>
        </dc:subject>
      </cc:Work>
      <cc:License
         rdf:about="http://creativecommons.org/licenses/publicdomain/">
        <cc:permits
           rdf:resource="http://creativecommons.org/ns#Reproduction" />
        <cc:permits
           rdf:resource="http://creativecommons.org/ns#Distribution" />
        <cc:permits
           rdf:resource="http://creativecommons.org/ns#DerivativeWorks" />
      </cc:License>
    </rdf:RDF>
  </metadata>
</svg>
